:SAMPLES-PER-SECOND 30
:FRAME-RANGE 1-663
:FULLY-SPECIFIED
:DEGREES
332
root  -22.4343 38.5523 54.0534 -173.72 23.8326 175.819
RightUpLeg  0.909999 -11.8808 -21.2876
RightLeg  29.8816 -14.496 -9.05737
RightFoot  1.63704 -2.29472 20.0829
RightToes  -3.4386e-010 1.2921e-014 -6.02303e-014
Spine  -5.09359 -0.368273 -0.309421
Spine1  8.32491 1.23859 -7.01554
HEad  18.9884 -5.80595 0.202391
LeftShoulder1  0.846961 0.525429 -24.5011
LeftArm  -8.4981 12.7187 -44.1018
LeftForeArm  18.1107 7.67855 -10.8478
LeftHand  -0.0222137 5.94401 1.71874
RightShoulder  1.89604 3.16936 23.1313
RightArm  -22.3324 9.1883 61.6462
RightForeArm  68.8624 -5.50401 4.44866
RightHand  0.288147 -7.29715 -18.3964
LeftUpLeg  -25.4678 4.09686 -1.04866
LeftLeg  15.6199 10.6183 3.13999
LeftFoot  -0.309686 0.672283 -6.93844
LeftToes  -7.12384e-010 -7.51861e-011 -8.34901e-011
333
root  -22.6958 38.6939 52.799 -174.114 21.884 176.307
RightUpLeg  -2.23579 -9.35352 -20.3594
RightLeg  38.2179 -14.025 -11.8139
RightFoot  5.55451 -1.36664 9.43905
RightToes  -3.4386e-010 1.2921e-014 -6.02303e-014
Spine  -4.82767 -0.294725 -0.0975828
Spine1  8.42497 1.11093 -6.29437
HEad  19.5655 -7.58773 -0.187685
LeftShoulder1  0.801294 0.67588 -24.5072
LeftArm  -8.86751 15.2172 -44.3588
LeftForeArm  19.3348 7.67299 -10.8435
LeftHand  -0.0196226 6.25836 1.66936
RightShoulder  1.92231 3.31447 22.8747
RightArm  -21.1832 10.4646 62.0515
RightForeArm  67.0134 -5.65492 4.93771
RightHand  0.249572 -6.98683 -19.0677
LeftUpLeg  -23.7032 2.9324 -2.03736
LeftLeg  16.1845 9.84574 3.19845
LeftFoot  -0.65628 0.313678 -3.3125
LeftToes  -7.12384e-010 -7.51861e-011 -8.34901e-011
334
root  -22.8021 38.6631 51.7439 -174.719 19.7284 176.283
RightUpLeg  -4.54941 -6.42424 -19.4992
RightLeg  44.4058 -8.78496 -9.39397
RightFoot  1.09405 -1.1193 10.3164
RightToes  -3.4386e-010 1.2921e-014 -6.02303e-014
Spine  -4.39345 -0.513842 -1.68053
Spine1  8.61268 0.543973 -5.61971
HEad  20.2613 -9.92363 -0.306675
LeftShoulder1  0.846462 0.476103 -23.9249
LeftArm  -9.36154 18.0256 -45.0467
LeftForeArm  18.9951 7.65567 -10.7245
LeftHand  -0.0202933 6.18772 1.56649
RightShoulder  1.91829 3.21513 23.2767
RightArm  -19.4204 11.7051 62.0185
RightForeArm  65.7678 -5.83312 5.74096
RightHand  0.225711 -6.7776 -19.8347
LeftUpLeg  -22.6394 1.15407 -2.94077
LeftLeg  18.2114 9.44012 3.63304
LeftFoot  -2.56373 0.18618 -2.22515
LeftToes  -7.12384e-010 -7.51861e-011 -8.34901e-011
335
root  -22.8333 38.6729 50.6793 -175.154 17.3973 176.267
RightUpLeg  -6.93587 -3.53807 -18.0063
RightLeg  48.9983 -4.11071 -5.38789
RightFoot  -2.24068 -0.796079 9.78746
RightToes  -3.4386e-010 1.2921e-014 -6.02303e-014
Spine  -4.34168 -0.890189 -3.29574
Spine1  8.78852 -0.177177 -4.88302
HEad  21.1733 -12.44 -0.269447
LeftShoulder1  0.913951 0.175163 -23.1673
LeftArm  -9.79651 19.9574 -45.7813
LeftForeArm  18.558 7.63828 -10.6036
LeftHand  -0.0248971 5.9987 1.1785
RightShoulder  1.87379 2.9824 23.6744
RightArm  -18.2246 12.3654 62.1528
RightForeArm  64.5839 -5.3959 6.30119
RightHand  0.183848 -6.44897 -21.1715
LeftUpLeg  -21.1565 -0.63402 -3.71505
LeftLeg  19.3679 8.92673 3.86664
LeftFoot  -4.4439 0.13158 -1.74009
LeftToes  -7.12384e-010 -7.51861e-011 -8.34901e-011
336
root  -22.8133 38.7159 49.6142 -175.321 15.1365 176.526
RightUpLeg  -9.55843 -0.84477 -15.7888
RightLeg  52.1677 -1.86482 -2.94551
RightFoot  -3.57156 -0.702851 9.96657
RightToes  -3.4386e-010 1.2921e-014 -6.02303e-014
Spine  -4.14718 -1.27142 -4.42415
Spine1  8.37031 -0.86496 -4.17449
HEad  21.882 -14.7308 -0.0684659
LeftShoulder1  0.956751 -0.0332935 -22.5962
LeftArm  -9.75432 20.7817 -46.2219
LeftForeArm  18.9602 7.63981 -10.6234
LeftHand  -0.0277561 5.78445 0.833651
RightShoulder  1.80496 2.67822 24.0515
RightArm  -17.9481 12.3621 62.3212
RightForeArm  62.7244 -2.75103 6.77179
RightHand  0.109128 -5.99819 -22.3182
LeftUpLeg  -19.5043 -1.90908 -4.22012
LeftLeg  19.8926 8.14157 3.98003
LeftFoot  -6.07684 0.0978634 -1.3342
LeftToes  -7.12384e-010 -7.51861e-011 -8.34901e-011
337
root  -22.7722 38.7958 48.5444 -175.42 12.9963 176.925
RightUpLeg  -12.2512 1.87354 -13.2361
RightLeg  53.7892 -1.52507 -2.62558
RightFoot  -4.62689 -0.577645 9.28888
RightToes  -3.4386e-010 1.2921e-014 -6.02303e-014
Spine  -3.88782 -1.65536 -5.18441
Spine1  7.7845 -1.48326 -3.4128
HEad  21.9009 -16.6033 0.41119
LeftShoulder1  1.00428 -0.262735 -22.0558
LeftArm  -9.42619 20.5513 -46.7637
LeftForeArm  19.6011 7.65369 -10.7291
LeftHand  -0.0278562 5.71606 0.859967
RightShoulder  1.71292 2.29605 24.4773
RightArm  -17.7828 12.2505 62.4429
RightForeArm  59.8272 -0.718622 7.16185
RightHand  -0.0148504 -5.35162 -23.1199
LeftUpLeg  -17.5538 -1.99017 -4.5123
LeftLeg  19.7916 6.38773 3.51952
LeftFoot  -7.49072 0.0650145 -0.594769
LeftToes  -7.12384e-010 -7.51861e-011 -8.34901e-011
338
root  -22.7204 38.8591 47.4919 -175.515 10.993 177.362
RightUpLeg  -15.0732 3.83896 -10.8589
RightLeg  54.1584 -2.48253 -4.08125
RightFoot  -6.31189 -0.431005 8.81675
RightToes  -3.4386e-010 1.2921e-014 -6.02303e-014
Spine  -3.52897 -2.08011 -5.75714
Spine1  7.08151 -2.08555 -2.66387
HEad  21.3693 -17.9568 1.07756
LeftShoulder1  1.10258 -0.675566 -21.5804
LeftArm  -9.03143 19.5416 -47.484
LeftForeArm  20.096 7.66564 -10.82
LeftHand  -0.0271702 5.65147 1.08048
RightShoulder  1.64328 2.02398 24.736
RightArm  -17.8988 12.1807 62.6056
RightForeArm  58.1076 0.18826 7.24568
RightHand  -0.0820924 -5.02189 -23.7127
LeftUpLeg  -15.5678 -1.85073 -4.63075
LeftLeg  19.6133 4.55931 3.05532
LeftFoot  -8.96335 0.0568375 -0.143791
LeftToes  -7.12384e-010 -7.51861e-011 -8.34901e-011
